<?xml version="1.0" encoding="utf-8"?>
<!-- Generator: Adobe Illustrator 25.2.3, SVG Export Plug-In . SVG Version: 6.00 Build 0)  -->
<svg version="1.1" id="Layer_1" xmlns="http://www.w3.org/2000/svg" xmlns:xlink="http://www.w3.org/1999/xlink" x="0px" y="0px"
	 viewBox="0 0 558.26 117.45" style="enable-background:new 0 0 558.26 117.45;" xml:space="preserve">
<style type="text/css">
	.st0{fill:#FFFFFF;stroke:#000000;stroke-width:3;stroke-miterlimit:10;}
	.st1{fill:#FFFFFF;}
</style>
<g>
	<polygon class="st0" points="3.06,19.17 3.06,51.05 30.67,66.99 58.28,51.05 58.28,19.17 30.67,3.23 	"/>
	<polygon class="st0" points="58.28,19.17 58.28,51.05 85.89,66.99 113.5,51.05 113.5,19.17 85.89,3.23 	"/>
	<polygon class="st0" points="30.67,66.87 30.67,98.75 58.28,114.69 85.89,98.75 85.89,66.87 58.28,50.93 	"/>
</g>
<g>
	<rect x="264.82" class="st1" width="293.43" height="117.45"/>
	<path class="st1" d="M140.43,25.81l14.85-2.01l-7.12,33.5c3.21-0.27,6.17-1.67,8.88-4.21c2.71-2.54,4.83-5.68,6.37-9.43
		c1.54-3.74,2.31-7.42,2.31-11.03c0-4.01-1.04-7.29-3.11-9.83c-2.07-2.54-5.18-3.81-9.33-3.81c-8.16,0-14.53,2.14-19.11,6.42
		c-4.58,4.28-6.87,10.27-6.87,17.96c0,2.47,0.23,4.2,0.7,5.17c0.47,0.97,0.7,1.52,0.7,1.66c-3.61,0-6.3-0.75-8.08-2.26
		c-1.77-1.5-2.66-4-2.66-7.47c0-4.28,1.76-8.44,5.27-12.49c3.51-4.05,8.01-7.32,13.49-9.83c5.48-2.51,10.97-3.76,16.45-3.76
		c5.28,0,9.7,0.9,13.24,2.71c3.54,1.81,6.17,4.2,7.87,7.17c1.71,2.98,2.56,6.27,2.56,9.88c0,4.35-1.19,8.59-3.56,12.74
		c-2.37,4.15-5.77,7.54-10.18,10.18c-4.41,2.64-9.5,3.96-15.25,3.96h-0.5l-6.12,28.59h-14.45L140.43,25.81z"/>
	<path class="st1" d="M181.66,39.46h14.45l-1.3,6.22c2.27-2.01,4.33-3.54,6.17-4.61c1.84-1.07,3.83-1.61,5.97-1.61
		c2.14,0,3.83,0.74,5.07,2.21c1.24,1.47,1.86,3.24,1.86,5.32c0,1.94-0.64,3.65-1.91,5.12c-1.27,1.47-3.04,2.21-5.32,2.21
		c-1.47,0-2.46-0.35-2.96-1.05c-0.5-0.7-0.89-1.72-1.15-3.06c-0.2-0.87-0.4-1.5-0.6-1.91c-0.2-0.4-0.57-0.6-1.1-0.6
		c-1.4,0-2.59,0.29-3.56,0.85c-0.97,0.57-2.22,1.55-3.76,2.96l-8.02,38.12h-14.45L181.66,39.46z"/>
	<path class="st1" d="M215.47,86.2c-2.88-2.54-4.31-6.55-4.31-12.04c0-4.61,0.9-9.68,2.71-15.2c1.81-5.52,4.75-10.3,8.83-14.34
		c4.08-4.05,9.29-6.07,15.65-6.07c7.89,0,12.14,4.51,12.74,13.54c1.47-0.33,2.77-1.15,3.91-2.46c1.14-1.3,2.21-2.79,3.21-4.46h3.21
		c-1.81,3.61-3.41,6.44-4.81,8.48c-1.4,2.04-3.24,3.7-5.52,4.97c-0.4,6.29-1.69,11.8-3.86,16.55c-2.17,4.75-5,8.41-8.48,10.98
		c-3.48,2.58-7.32,3.86-11.54,3.86C222.25,90.02,218.34,88.75,215.47,86.2z M238.14,74.97c2.14-4.01,3.61-8.96,4.41-14.85
		c-1.6-0.6-2.41-2.11-2.41-4.51c0-2.61,0.94-4.35,2.81-5.22c-0.13-2.14-0.49-3.63-1.05-4.46c-0.57-0.84-1.49-1.25-2.76-1.25
		c-2.21,0-4.31,1.59-6.32,4.77c-2.01,3.18-3.63,7.02-4.87,11.54c-1.24,4.51-1.86,8.48-1.86,11.89c0,3.21,0.37,5.37,1.1,6.47
		c0.74,1.1,2.07,1.66,4.01,1.66C233.69,80.99,236,78.98,238.14,74.97z"/>
	<path d="M274.85,89.21c-3.21-1.47-5.68-3.53-7.42-6.17c-1.74-2.64-2.61-5.7-2.61-9.18c0-2.94,0.62-5.62,1.86-8.03
		c1.24-2.41,2.91-4.31,5.02-5.72c2.11-1.4,4.43-2.11,6.97-2.11c2.34,0,4.31,0.59,5.92,1.76c1.61,1.17,2.61,2.79,3.01,4.87
		c-3.48,0-6.25,0.92-8.33,2.76c-2.07,1.84-3.11,4.33-3.11,7.47c0,2.88,0.87,5.18,2.61,6.92c1.74,1.74,4.04,2.61,6.92,2.61
		c3.54,0,6.47-1.19,8.78-3.56c2.31-2.37,3.46-5.37,3.46-8.98c0-3.14-0.87-6.12-2.61-8.93c-1.74-2.81-4.35-6.22-7.83-10.23
		c-3.61-4.15-6.34-7.71-8.17-10.68c-1.84-2.97-2.76-6.23-2.76-9.78c0-3.48,0.97-6.6,2.91-9.38c1.94-2.77,4.61-4.97,8.02-6.57
		c3.41-1.6,7.26-2.41,11.54-2.41c5.42,0,9.75,1.27,12.99,3.81c3.24,2.54,4.87,5.95,4.87,10.23c0,2.81-0.7,5.08-2.11,6.82
		c-1.4,1.74-3.24,2.61-5.52,2.61c-2.54,0-4.58-1.04-6.12-3.11c1.27-0.94,2.27-2.17,3.01-3.71c0.74-1.54,1.1-3.14,1.1-4.81
		c0-2.14-0.63-3.84-1.9-5.12c-1.27-1.27-3.01-1.91-5.22-1.91c-2.68,0-4.87,0.95-6.57,2.86c-1.71,1.91-2.56,4.33-2.56,7.27
		c0,2.68,0.77,5.17,2.31,7.47s3.95,5.27,7.22,8.88c2.67,2.88,4.83,5.35,6.47,7.42c1.64,2.07,3.04,4.46,4.21,7.17
		s1.76,5.63,1.76,8.78c0,4.28-1.19,8.16-3.56,11.64c-2.38,3.48-5.62,6.22-9.73,8.23c-4.11,2.01-8.68,3.01-13.69,3.01
		C281.77,91.42,278.06,90.68,274.85,89.21z"/>
	<path d="M321.1,86.3c-2.54-2.61-3.81-6.69-3.81-12.24c0-4.95,0.99-10.15,2.96-15.6c1.97-5.45,4.92-10.06,8.83-13.84
		c3.91-3.78,8.58-5.67,13.99-5.67c2.74,0,4.78,0.47,6.12,1.4c1.34,0.94,2.01,2.17,2.01,3.71v0.7l1.1-5.32h14.45l-7.22,34.11
		c-0.27,1-0.4,2.07-0.4,3.21c0,2.88,1.37,4.31,4.11,4.31c1.87,0,3.49-0.87,4.87-2.61c1.37-1.74,2.46-4.01,3.26-6.82h4.21
		c-2.47,7.22-5.53,12.12-9.18,14.7c-3.65,2.58-7.31,3.86-10.98,3.86c-2.81,0-5.07-0.79-6.77-2.36c-1.71-1.57-2.73-3.86-3.06-6.87
		c-1.94,2.74-4.1,4.97-6.47,6.67c-2.37,1.71-5.2,2.56-8.48,2.56C326.81,90.22,323.64,88.91,321.1,86.3z M342.11,78.13
		c1.64-1.57,2.76-3.73,3.36-6.47l4.82-22.67c0-0.87-0.34-1.72-1-2.56c-0.67-0.84-1.71-1.25-3.11-1.25c-2.68,0-5.08,1.55-7.22,4.66
		c-2.14,3.11-3.81,6.86-5.02,11.23c-1.2,4.38-1.81,8.24-1.81,11.59c0,3.35,0.48,5.48,1.46,6.42c0.97,0.94,2.16,1.4,3.56,1.4
		C338.82,80.49,340.47,79.7,342.11,78.13z"/>
	<path d="M423.36,86.96c-1.91-2.17-2.86-4.87-2.86-8.08c0-1.4,0.17-2.99,0.5-4.77c0.33-1.77,0.68-3.49,1.05-5.17
		c0.37-1.67,0.62-2.74,0.75-3.21c0.53-2.34,1.04-4.65,1.5-6.92c0.47-2.27,0.7-4.11,0.7-5.52c0-3.41-1.2-5.12-3.61-5.12
		c-1.74,0-3.28,0.85-4.62,2.56c-1.34,1.71-2.41,3.93-3.21,6.67l-6.82,32.2h-14.44l7.32-34.61c0.2-0.8,0.3-1.64,0.3-2.51
		c0-2.94-1-4.41-3.01-4.41c-1.87,0-3.5,0.85-4.87,2.56c-1.37,1.71-2.46,3.96-3.26,6.77l-6.82,32.2h-14.44l10.63-50.16h14.45
		l-1.1,5.22c3.41-3.81,7.49-5.72,12.24-5.72c5.88,0,9.33,2.88,10.33,8.63c3.68-5.68,8.33-8.53,13.94-8.53
		c3.41,0,6.12,0.94,8.13,2.81c2.01,1.87,3.01,4.71,3.01,8.53c0,1.94-0.24,4.1-0.7,6.47c-0.47,2.38-1.14,5.27-2.01,8.68
		c-0.54,2.07-1.02,4.1-1.46,6.07c-0.44,1.97-0.65,3.53-0.65,4.66c0,1.34,0.3,2.38,0.9,3.11c0.6,0.74,1.64,1.1,3.11,1.1
		c2.01,0,3.61-0.72,4.82-2.16c1.2-1.44,2.41-3.66,3.61-6.67H451c-2.47,7.36-5.33,12.29-8.58,14.8c-3.24,2.51-6.6,3.76-10.08,3.76
		C428.26,90.22,425.27,89.13,423.36,86.96z"/>
	<path d="M454.41,35.75h14.45l-1.61,7.52c3.34-2.87,7.26-4.31,11.74-4.31c3.75,0,6.72,1.24,8.93,3.71
		c2.21,2.47,3.31,6.52,3.31,12.14c0,5.28-0.77,10.62-2.31,16c-1.54,5.38-4.15,9.97-7.83,13.74c-3.68,3.78-8.53,5.67-14.54,5.67
		c-4.28,0-7.12-1.2-8.53-3.61l-5.22,24.48l-15.15,3.61L454.41,35.75z M471.41,76.97c2.11-3.01,3.64-6.6,4.61-10.78
		c0.97-4.18,1.45-8.08,1.45-11.69c0-5.55-1.67-8.33-5.02-8.33c-1.2,0-2.42,0.44-3.66,1.3c-1.24,0.87-2.32,2.07-3.26,3.61
		l-5.92,28.09c0.54,1.54,1.81,2.31,3.81,2.31C466.65,81.49,469.31,79.98,471.41,76.97z"/>
	<path d="M495.89,87.21c-1.97-2.01-2.96-5.02-2.96-9.03c0-1.67,0.27-3.84,0.8-6.52l10.73-50.26l14.85-2.01l-11.54,54.17
		c-0.27,1-0.4,2.07-0.4,3.21c0,1.34,0.32,2.29,0.95,2.86c0.63,0.57,1.69,0.85,3.16,0.85c1.94,0,3.74-0.82,5.42-2.46
		c1.67-1.64,2.88-3.76,3.61-6.37h4.21c-2.48,7.22-5.65,12.12-9.53,14.7c-3.88,2.58-7.72,3.86-11.54,3.86
		C500.45,90.22,497.86,89.21,495.89,87.21z"/>
	<path d="M523.22,86.35c-2.74-2.57-4.11-6.6-4.11-12.09c0-4.61,0.9-9.7,2.71-15.25c1.81-5.55,4.75-10.35,8.83-14.39
		c4.08-4.05,9.26-6.07,15.55-6.07c7.36,0,11.04,3.21,11.04,9.63c0,3.75-1.07,7.19-3.21,10.33c-2.14,3.14-4.98,5.67-8.53,7.57
		c-3.54,1.91-7.32,2.99-11.33,3.26c-0.13,1.47-0.2,2.48-0.2,3.01c0,5.55,2.07,8.33,6.22,8.33c1.87,0,3.88-0.5,6.02-1.5
		c2.14-1,4.08-2.27,5.82-3.81c-1.81,9.9-7.59,14.85-17.35,14.85C529.78,90.22,525.97,88.93,523.22,86.35z M542.03,62.03
		c2.24-1.6,4.04-3.66,5.42-6.17c1.37-2.51,2.06-5.13,2.06-7.87c0-2.74-0.84-4.11-2.51-4.11c-2.34,0-4.66,2.12-6.97,6.37
		c-2.31,4.25-4.03,9.01-5.17,14.29C537.4,64.47,539.79,63.63,542.03,62.03z"/>
</g>
<circle cx="20.1" cy="26.32" r="4.7"/>
<circle cx="30.67" cy="43.71" r="4.7"/>
<circle cx="40.08" cy="30.41" r="4.7"/>
<circle cx="83.77" cy="31.02" r="4.7"/>
<circle cx="88.48" cy="43.71" r="4.7"/>
<circle cx="79.07" cy="43.71" r="4.7"/>
<circle cx="67.69" cy="41.03" r="4.7"/>
<circle cx="69.66" cy="66.87" r="4.7"/>
<circle cx="50.64" cy="43.71" r="4.7"/>
<circle cx="39.46" cy="53.11" r="4.7"/>
<circle cx="33.22" cy="15.63" r="4.7"/>
<circle cx="99.5" cy="32.87" r="4.7"/>
<circle cx="62.98" cy="82.81" r="4.7"/>
<circle cx="58.28" cy="71.58" r="4.7"/>
<circle cx="48.87" cy="82.81" r="4.7"/>
<circle cx="58.28" cy="96.72" r="4.7"/>
</svg>
