<?xml version="1.0" encoding="utf-8"?>
<!-- Generator: Adobe Illustrator 25.3.1, SVG Export Plug-In . SVG Version: 6.00 Build 0)  -->
<svg version="1.1" id="Layer_1" xmlns="http://www.w3.org/2000/svg" xmlns:xlink="http://www.w3.org/1999/xlink" x="0px" y="0px"
	 viewBox="0 0 450.3 144.4" style="enable-background:new 0 0 450.3 144.4;" xml:space="preserve">
<style type="text/css">
	.st0{fill:#FFFFFF;}
</style>
<rect x="0" y="18.4" width="153" height="108"/>
<rect x="153" y="18.4" class="st0" width="297" height="108"/>
<g>
	<path class="st0" d="M40.4,36.4c4.4,0,8.2,0.7,11.4,2.1c3.1,1.4,5.5,3.5,7.2,6.2c1.6,2.7,2.5,6,2.5,9.8c0,3.8-0.8,7.1-2.5,9.8
		c-1.6,2.7-4,4.7-7.2,6.2c-3.1,1.4-6.9,2.1-11.4,2.1H29.6v18.1H15.4V36.4H40.4z M38.2,62.1c3,0,5.2-0.6,6.7-1.9
		c1.5-1.2,2.3-3.1,2.3-5.6c0-2.5-0.8-4.4-2.3-5.6c-1.5-1.2-3.7-1.9-6.7-1.9h-8.6v15H38.2z"/>
	<path class="st0" d="M69.5,90.8V49.6h12.4l0.6,8.9c1-3.1,2.6-5.5,4.7-7.2c2.1-1.7,4.7-2.6,7.9-2.6c1,0,1.9,0.1,2.7,0.2
		c0.7,0.2,1.3,0.4,1.8,0.7l-1.4,11.5c-0.5-0.2-1.2-0.4-2.1-0.5c-0.9-0.1-1.9-0.2-3.1-0.2c-1.6,0-3.2,0.4-4.6,1.1
		c-1.4,0.7-2.6,1.8-3.4,3.2c-0.9,1.4-1.3,3.2-1.3,5.3v20.7H69.5z"/>
	<path class="st0" d="M124,48.8c4.3,0,8.1,0.8,11.4,2.5c3.3,1.7,5.8,4.1,7.7,7.3c1.8,3.2,2.8,7.1,2.8,11.6c0,4.5-0.9,8.4-2.8,11.6
		c-1.8,3.2-4.4,5.7-7.7,7.3c-3.3,1.7-7.1,2.5-11.4,2.5c-4.2,0-8-0.8-11.3-2.5c-3.3-1.7-5.9-4.1-7.7-7.3c-1.8-3.2-2.8-7.1-2.8-11.6
		c0-4.5,0.9-8.4,2.8-11.6c1.8-3.2,4.4-5.7,7.7-7.3C116,49.6,119.7,48.8,124,48.8z M124,58.8c-1.6,0-3,0.4-4.1,1.2
		c-1.2,0.8-2,2-2.6,3.7c-0.6,1.7-0.9,3.9-0.9,6.6s0.3,4.9,0.9,6.5c0.6,1.7,1.5,2.9,2.6,3.7c1.2,0.8,2.5,1.2,4.1,1.2
		c1.6,0,3-0.4,4.2-1.2c1.2-0.8,2-2,2.6-3.7c0.6-1.7,0.9-3.9,0.9-6.5s-0.3-4.9-0.9-6.6c-0.6-1.7-1.5-2.9-2.6-3.7
		C127,59.1,125.6,58.8,124,58.8z"/>
</g>
<g>
	<path d="M206.3,56l4.2,5.2l2.4,2.9c4.6,5.7,7,11.8,7,18.2c0,6.2-2,11.6-6.1,16.3c-5.6,6.4-12.9,9.6-22,9.6c-7,0-12.8-2.2-17.3-6.5
		c-4.5-4.3-6.7-9.9-6.7-16.6c0-8.3,3.5-15.1,10.5-20.6c3.7-2.9,7.1-4.4,10.3-4.4c1.6,0,3,0.5,4,1.4c1,0.9,1.5,2.1,1.5,3.6
		c0,2-1.2,3.7-3.5,5.1l-3.6,2.2c-2.1,1.3-3.8,3.1-5.2,5.4c-1.4,2.3-2.1,4.6-2.1,6.9c0,3.6,1.2,6.5,3.6,8.9c2.4,2.3,5.5,3.5,9.2,3.5
		c4.1,0,7.7-1.5,10.8-4.6c3-3.1,4.6-6.7,4.6-10.9c0-2.6-0.6-5.1-1.9-7.2c-1.2-2.2-3.9-5.5-8-10.1c-2.9-3.2-4.9-5.9-6.1-8.3h-12.2
		c-4.2,0-6.2-1.4-6.2-4.3c0-2.1,0.7-3.7,2.2-4.8c1.5-1.1,3.5-1.7,6.2-1.7h7.7c0.6-6,3.3-10.9,8.2-14.8c4.8-3.9,10.7-5.8,17.4-5.8
		c5.1,0,9.2,1.4,12.4,4.2c3.2,2.8,4.8,6.4,4.8,10.9c0,5.9-2.5,10.5-7.6,13.6c-2.9,1.8-7.5,2.7-13.8,2.7H206.3z M200.9,45.2h10.8
		c6.1,0,9.2-1.8,9.2-5.3c0-1.4-0.6-2.5-1.9-3.3c-1.2-0.8-2.9-1.3-5-1.3c-3.3,0-6.2,1-8.9,3C202.5,40.3,201.1,42.6,200.9,45.2z"/>
	<path d="M259.3,77h5c3.8,0,5.7,1.3,5.7,4c0,1.8-0.7,3.3-2,4.3c-1.4,1-3.2,1.6-5.6,1.6h-5.8c-2.6,0-4.4-1-5.3-3c-2.3,2-4.4,3-6.5,3
		h-5.2c-3.3,0-6-1.2-8-3.5c-2-2.4-3.1-5.5-3.1-9.3c0-5.8,2-11,6-15.5s8.5-6.8,13.5-6.8c3.9,0,6.7,1.3,8.4,4c1.5-2.3,3.5-3.4,5.9-3.4
		c1.3,0,2.4,0.4,3.3,1.3c0.9,0.8,1.3,1.9,1.3,3.1c0,0.8-0.2,1.9-0.7,3l-0.5,1.2L259.3,77z M242.9,77.2h1.1c2.5,0,4.1-1,4.9-3
		l3.2-7.8c0.4-1,0.6-1.9,0.6-2.6c0-0.8-0.4-1.5-1.2-2.1c-0.8-0.6-1.8-0.9-2.9-0.9c-2.2,0-4.3,1.3-6.4,3.8c-2.1,2.6-3.1,5.2-3.1,8
		C239.1,75.7,240.4,77.2,242.9,77.2z"/>
	<path d="M326,77h5.4c3.8,0,5.7,1.3,5.7,4c0,1.8-0.7,3.3-2,4.3c-1.3,1-3.2,1.5-5.6,1.5h-9.2c-2,0-3.6-0.5-4.8-1.6
		c-1.2-1.1-1.9-2.4-1.9-4.2c0-1.2,0.4-2.8,1.2-4.8l4.2-10.3c0.2-0.6,0.4-1.2,0.4-1.7c0-2-1-2.9-3-2.9c-1.5,0-3.1,0.7-4.6,2.1
		c-1.5,1.4-2.7,3.2-3.6,5.5l-5.1,12.5c-1.7,4-4.1,6.1-7.2,6.1c-1.2,0-2.3-0.4-3.2-1.2c-0.9-0.8-1.3-1.8-1.3-2.9
		c0-0.9,0.2-1.9,0.7-3.1l0.5-1.2l5.1-12.6c0.5-1.1,0.7-2,0.7-2.6c0-0.7-0.3-1.2-0.9-1.7c-0.6-0.5-1.3-0.7-2.1-0.7
		c-3.3,0-5.8,2.3-7.7,7l-5.3,13c-1.7,4.1-4.1,6.1-7.2,6.1c-1.2,0-2.3-0.4-3.2-1.2c-0.9-0.8-1.3-1.8-1.3-2.9c0-0.9,0.2-1.9,0.7-3.1
		l0.5-1.2l9-22.1c1.3-3.1,3.2-4.7,5.7-4.7c2.6,0,4.2,1.2,4.9,3.7c2-1.7,3.7-2.9,5-3.5c1.3-0.6,2.9-0.9,4.7-0.9c4,0,7.1,1.8,9.1,5.3
		c3.4-3.5,7.2-5.3,11.4-5.3c2.9,0,5.3,0.8,7.3,2.5s2.9,3.7,2.9,6.2c0,1.5-0.3,3.1-1,4.7L326,77z"/>
	<path d="M348.6,83.3l-11.8,29c-1.6,4-4,6-7.1,6c-1.2,0-2.2-0.4-3.1-1.2s-1.3-1.8-1.3-2.9c0-0.9,0.4-2.3,1.1-4.2l21.8-53.7
		c1.1-2.7,3-4.1,5.8-4.1c1.9,0,3.4,0.9,4.5,2.7c2.1-2.2,4.7-3.3,7.7-3.3c3.2,0,5.7,1.2,7.7,3.6s2.9,5.5,2.9,9.5
		c0,7.4-2.3,13.4-6.9,18.1c-1.5,1.5-3.1,2.6-4.7,3.2c-1.6,0.6-3.8,0.9-6.7,0.9c-3.1,0-5.2-0.2-6.3-0.6
		C351,85.8,349.8,84.8,348.6,83.3z M352.3,74.1c0.8,1.3,1.5,2.2,2.1,2.6c0.7,0.4,1.8,0.6,3.2,0.6c2.1,0,3.8-0.8,5-2.4
		c2.4-3.2,3.7-6.5,3.7-9.9c0-2.9-1.4-4.4-4.2-4.4c-3,0-5.2,1.8-6.5,5.3c-0.2,0.4-0.3,0.7-0.4,1L352.3,74.1z"/>
	<path d="M391.3,77h4.7c3.8,0,5.7,1.3,5.7,4c0,1.8-0.7,3.3-2,4.3c-1.3,1-3.2,1.5-5.6,1.5H386c-2.2,0-4-0.5-5.3-1.6
		c-1.3-1.1-1.9-2.5-1.9-4.2c0-0.9,0.4-2.5,1.3-4.7l18.2-44.9l0.5-1.2c1.4-3.4,3.6-5.1,6.6-5.1c1.3,0,2.3,0.4,3.2,1.3
		c0.9,0.8,1.3,1.9,1.3,3c0,0.9-0.2,1.9-0.7,3.1l-0.5,1.2L391.3,77z"/>
	<path d="M414.6,73.6c0,2.3,1.7,3.4,5.1,3.4h13.4c3.8,0,5.7,1.3,5.7,4c0,1.8-0.7,3.3-2,4.3c-1.3,1-3.2,1.5-5.6,1.5h-12.8
		c-4.8,0-8.4-1.2-10.9-3.5c-2.5-2.3-3.7-5.8-3.7-10.3c0-5.8,2-10.8,5.9-15c3.9-4.2,8.6-6.3,14-6.3c3.9,0,7.1,1,9.5,3.1
		c2.4,2.1,3.6,4.8,3.6,8.2c0,4.1-1.7,7.1-5,9c-1.8,1.1-4.6,1.7-8.2,1.7H414.6z M416.8,65.4h5c3.2,0,4.8-0.7,4.7-2.1
		c-0.1-1.6-1.1-2.4-3.1-2.4C420.5,60.9,418.3,62.4,416.8,65.4z"/>
</g>
</svg>
